<svg width="63" height="60" viewBox="0 0 63 60" fill="none" xmlns="http://www.w3.org/2000/svg">
<path d="M62.2826 30C62.2826 46.2726 48.5113 59.5 31.4783 59.5C14.4452 59.5 0.67392 46.2726 0.67392 30C0.67392 13.7274 14.4452 0.5 31.4783 0.5C48.5113 0.5 62.2826 13.7274 62.2826 30Z" stroke="black"/>
<path d="M41.5809 41.71C43.6104 41.3825 45.5907 40.8195 47.4783 40.0333C48.1027 39.7644 48.5918 39.271 48.84 38.6596C49.0883 38.0481 49.0758 37.3677 48.8052 36.765L46.4122 31.415C45.9945 30.4813 45.7791 29.4759 45.7791 28.46V25C45.7791 21.3533 44.2675 17.8559 41.5767 15.2773C38.886 12.6987 35.2366 11.25 31.4313 11.25C27.626 11.25 23.9766 12.6987 21.2859 15.2773C18.5951 17.8559 17.0835 21.3533 17.0835 25V28.46C17.0835 29.4759 16.8681 30.4813 16.4504 31.415L14.0591 36.765C13.7884 37.3675 13.7757 38.0477 14.0236 38.6591C14.2715 39.2705 14.7602 39.7641 15.3843 40.0333C17.2719 40.8195 19.2522 41.3825 21.2817 41.71" stroke="black" stroke-width="1.5" stroke-linecap="round" stroke-linejoin="round"/>
<path d="M47.9113 48.75C46.4345 45.7586 44.1016 43.2307 41.1841 41.4604C38.2666 39.6901 34.8845 38.7502 31.4313 38.7502C27.9782 38.7502 24.596 39.6901 21.6785 41.4604C18.761 43.2307 16.4281 45.7586 14.9513 48.75" stroke="black" stroke-width="1.5" stroke-linecap="round" stroke-linejoin="round"/>
<path d="M35.3444 48.75L38.8818 40.2733" stroke="black" stroke-width="1.5" stroke-linecap="round" stroke-linejoin="round"/>
<path d="M23.9809 40.2733L27.5183 48.75" stroke="black" stroke-width="1.5" stroke-linecap="round" stroke-linejoin="round"/>
<path d="M31.4313 18.75C31.4313 18.75 28.9391 24.75 22.6817 24.9917C22.2732 26.2981 22.1889 27.678 22.4358 29.0212C22.6826 30.3644 23.2536 31.6337 24.1033 32.7278C24.953 33.8219 26.0578 34.7105 27.3295 35.3227C28.6012 35.9349 30.0047 36.2537 31.4278 36.2537C32.851 36.2537 34.2544 35.9349 35.5262 35.3227C36.7979 34.7105 37.9027 33.8219 38.7524 32.7278C39.602 31.6337 40.1731 30.3644 40.4199 29.0212C40.6667 27.678 40.5825 26.2981 40.1739 24.9917C33.9252 24.745 31.4313 18.75 31.4313 18.75Z" stroke="black" stroke-width="1.5" stroke-linecap="round" stroke-linejoin="round"/>
</svg>
