<svg width="60" height="60" viewBox="0 0 60 60" fill="none" xmlns="http://www.w3.org/2000/svg">
<circle cx="30" cy="30" r="29.5" stroke="black"/>
<path d="M30 15.1165V46.327C29.995 47.2996 29.6101 48.2309 28.9288 48.9186C28.2475 49.6064 27.325 49.9949 26.3615 50C25.3996 49.99 24.4799 49.5998 23.7997 48.9132C23.1195 48.2265 22.733 47.2981 22.7231 46.327C22.419 46.3573 22.1128 46.3573 21.8087 46.327C20.1228 46.322 18.5074 45.6436 17.3153 44.4402C16.1232 43.2368 15.4512 41.6061 15.4462 39.9042C15.4476 39.4512 15.4987 38.9997 15.5986 38.5581C14.1114 38.0599 12.7974 37.1407 11.8132 35.9098C10.829 34.679 10.2161 33.1885 10.0475 31.6159C9.87884 30.0433 10.1616 28.4549 10.8621 27.04C11.5626 25.6251 12.6513 24.4433 13.9984 23.6355C13.7596 22.9629 13.6372 22.2538 13.6365 21.5394C13.6389 19.9976 14.1907 18.5082 15.1909 17.3431C16.1912 16.178 17.5732 15.415 19.0846 15.1934C19.1669 13.7885 19.7777 12.4684 20.7922 11.503C21.8067 10.5377 23.1482 10 24.5423 10C25.9365 10 27.278 10.5377 28.2924 11.503C29.3069 12.4684 29.9177 13.7885 30 15.1934V15.1165Z" stroke="black" stroke-miterlimit="10"/>
<path d="M19.999 27.9814C18.3693 27.8914 16.8357 27.1745 15.7135 25.9781C14.5914 24.7816 13.966 23.1966 13.966 21.5489C13.966 19.9013 14.5914 18.3163 15.7135 17.1198C16.8357 15.9234 18.3693 15.2064 19.999 15.1165" stroke="black" stroke-miterlimit="10"/>
<path d="M22.7231 33.4813C23.6787 33.4813 24.625 33.6713 25.5079 34.0405C26.3907 34.4097 27.1929 34.9508 27.8687 35.6329C28.5444 36.315 29.0804 37.1248 29.4461 38.0161C29.8118 38.9073 30 39.8626 30 40.8272" stroke="black" stroke-miterlimit="10"/>
<path d="M24.5518 20.6355C25.2689 20.6355 25.9789 20.4926 26.6412 20.215C27.3034 19.9374 27.9049 19.5306 28.411 19.0179C28.9172 18.5051 29.3181 17.8965 29.5908 17.2271C29.8634 16.5576 30.0025 15.8403 30 15.1165" stroke="black" stroke-miterlimit="10"/>
<path d="M30 15.1165V46.327C30.005 47.2996 30.3899 48.2309 31.0712 48.9186C31.7525 49.6064 32.675 49.9949 33.6385 50C34.6004 49.99 35.5201 49.5998 36.2003 48.9132C36.8805 48.2265 37.267 47.2981 37.2769 46.327C37.581 46.3573 37.8872 46.3573 38.1913 46.327C39.8772 46.322 41.4926 45.6436 42.6847 44.4402C43.8768 43.2368 44.5488 41.6061 44.5538 39.9042C44.5524 39.4512 44.5013 38.9997 44.4014 38.5581C45.8886 38.0599 47.2026 37.1407 48.1868 35.9098C49.171 34.679 49.7839 33.1885 49.9525 31.6159C50.1212 30.0433 49.8384 28.4549 49.1379 27.04C48.4374 25.6251 47.3487 24.4433 46.0016 23.6355C46.2404 22.9629 46.3628 22.2538 46.3635 21.5394C46.3611 19.9976 45.8093 18.5082 44.8091 17.3431C43.8088 16.178 42.4268 15.415 40.9154 15.1934C40.8331 13.7885 40.2223 12.4684 39.2078 11.503C38.1933 10.5377 36.8518 10 35.4577 10C34.0635 10 32.722 10.5377 31.7076 11.503C30.6931 12.4684 30.0823 13.7885 30 15.1934V15.1165Z" stroke="black" stroke-miterlimit="10"/>
<path d="M40.001 27.9814C41.6307 27.8914 43.1643 27.1745 44.2865 25.9781C45.4086 24.7816 46.034 23.1966 46.034 21.5489C46.034 19.9013 45.4086 18.3163 44.2865 17.1198C43.1643 15.9234 41.6307 15.2064 40.001 15.1165" stroke="black" stroke-miterlimit="10"/>
<path d="M37.2769 33.4813C36.3213 33.4813 35.375 33.6713 34.4922 34.0405C33.6093 34.4097 32.8071 34.9508 32.1314 35.6329C31.4556 36.315 30.9196 37.1248 30.5539 38.0161C30.1882 38.9073 30 39.8626 30 40.8272" stroke="black" stroke-miterlimit="10"/>
<path d="M35.4482 20.6355C34.7311 20.6355 34.0211 20.4926 33.3588 20.215C32.6966 19.9374 32.0951 19.5306 31.589 19.0179C31.0828 18.5051 30.6819 17.8965 30.4092 17.2271C30.1366 16.5576 29.9975 15.8403 30 15.1165" stroke="black" stroke-miterlimit="10"/>
</svg>
