<svg width="60" height="60" viewBox="0 0 60 60" fill="none" xmlns="http://www.w3.org/2000/svg">
<circle cx="30" cy="30" r="29.5" stroke="black"/>
<path d="M17.7923 48.75V38.3083C15.4893 36.1748 13.8832 33.3965 13.1837 30.3362C12.4843 27.2758 12.7239 24.0756 13.8713 21.1535C15.0187 18.2314 17.0206 15.7232 19.6156 13.9564C22.2105 12.1897 25.278 11.2465 28.4173 11.25C40.3157 11.25 42.884 21.0467 47.1257 32.05C47.1983 32.2395 47.2238 32.4437 47.2 32.6452C47.1762 32.8467 47.1038 33.0393 46.989 33.2067C46.8742 33.3738 46.7205 33.5107 46.541 33.6053C46.3615 33.7 46.1618 33.7497 45.959 33.75H42.7923V38.75C42.7923 40.0762 42.2655 41.3478 41.3278 42.2855C40.3902 43.2232 39.1183 43.75 37.7923 43.75H35.2923V48.75" stroke="black" stroke-width="1.5" stroke-linecap="round" stroke-linejoin="round"/>
<path d="M28.4423 36.1007C33.644 36.1007 37.8605 31.884 37.8605 26.6825C37.8605 21.4811 33.644 17.2644 28.4423 17.2644C23.2409 17.2644 19.0243 21.4811 19.0243 26.6825C19.0243 31.884 23.2409 36.1007 28.4423 36.1007Z" stroke="black" stroke-width="1.5" stroke-linecap="round" stroke-linejoin="round"/>
<path d="M25.2623 24.8606C24.9161 24.8606 24.6354 24.5799 24.6354 24.2337C24.6354 23.8874 24.9161 23.6068 25.2623 23.6068" stroke="black" stroke-width="1.5" stroke-linecap="round" stroke-linejoin="round"/>
<path d="M25.2626 24.8606C25.6088 24.8606 25.8895 24.5799 25.8895 24.2337C25.8895 23.8874 25.6088 23.6068 25.2626 23.6068" stroke="black" stroke-width="1.5" stroke-linecap="round" stroke-linejoin="round"/>
<path d="M31.6222 24.8606C31.276 24.8606 30.9953 24.5799 30.9953 24.2337C30.9953 23.8874 31.276 23.6068 31.6222 23.6068" stroke="black" stroke-width="1.5" stroke-linecap="round" stroke-linejoin="round"/>
<path d="M31.6225 24.8606C31.9687 24.8606 32.2493 24.5799 32.2493 24.2337C32.2493 23.8874 31.9687 23.6068 31.6225 23.6068" stroke="black" stroke-width="1.5" stroke-linecap="round" stroke-linejoin="round"/>
<path d="M31.3338 29.7555C29.9275 31.071 26.8908 31.0277 25.5519 29.7555" stroke="black" stroke-width="1.5" stroke-linecap="round" stroke-linejoin="round"/>
</svg>
