<svg width="60" height="60" viewBox="0 0 60 60" fill="none" xmlns="http://www.w3.org/2000/svg">
<circle cx="30" cy="30" r="29.5" stroke="black"/>
<path d="M25.4365 20.4981C22.4495 20.6648 19.4624 21.1648 16.4754 21.9981C16.3095 21.8315 16.1435 21.6648 15.9776 21.4981C14.65 20.1648 12.8246 19.9981 11.8289 20.8315C10.8333 21.8315 11.1651 23.6648 12.4927 24.9981C12.6587 25.1648 12.6587 25.1648 12.8246 25.3315C11.3311 31.9981 11.3311 36.9981 12.8246 43.6648C12.6587 43.8315 12.6587 43.8315 12.4927 43.9981C11.1651 45.3315 10.9992 47.1648 11.8289 48.1648C12.8246 49.1648 14.65 48.8315 15.9776 47.4981C16.1435 47.3315 16.3095 47.1648 16.4754 46.9981C25.4365 49.1648 34.5635 49.1648 43.5247 46.9981C43.6905 47.1648 43.8565 47.3315 44.0225 47.4981C45.35 48.8315 47.1753 48.9981 48.171 48.1648C49.1667 47.1648 48.8348 45.3315 47.5073 43.9981L47.1753 43.6648C48.6688 36.9981 48.6688 31.9981 47.1753 25.3315L47.5073 24.9981C48.8348 23.6648 49.0008 21.8315 48.171 20.8315C47.1753 19.8315 45.35 20.1648 44.0225 21.4981" stroke="black" stroke-width="1.5" stroke-miterlimit="10" stroke-linecap="round" stroke-linejoin="round"/>
<path d="M32.0833 11.6667H38.75L31.6667 21.6667H39.1667" stroke="black" stroke-width="1.5" stroke-linecap="round" stroke-linejoin="round"/>
<path d="M25.2778 26.6667H29.7222L25 33.3333H30" stroke="black" stroke-width="1.5" stroke-linecap="round" stroke-linejoin="round"/>
</svg>
