<svg width="60" height="60" viewBox="0 0 60 60" fill="none" xmlns="http://www.w3.org/2000/svg">
<circle cx="30" cy="30" r="29.5" stroke="black"/>
<path d="M13.3189 40.0856C13.3189 39.5333 13.7666 39.0856 14.3189 39.0856H18.9912C19.5435 39.0856 19.9912 39.5333 19.9912 40.0856V49C19.9912 49.5523 19.5435 50 18.9912 50H14.3189C13.7666 50 13.3189 49.5523 13.3189 49V40.0856Z" stroke="black" stroke-miterlimit="10"/>
<path d="M40.0088 26.552C40.0088 25.6092 40.0088 25.1378 40.3017 24.8449C40.5946 24.552 41.066 24.552 42.0088 24.552H44.6813C45.6241 24.552 46.0955 24.552 46.3884 24.8449C46.6813 25.1378 46.6813 25.6092 46.6813 26.552V47.9998C46.6813 48.9426 46.6813 49.414 46.3884 49.7069C46.0955 49.9998 45.6241 49.9998 44.6813 49.9998H42.0088C41.066 49.9998 40.5946 49.9998 40.3017 49.7069C40.0088 49.414 40.0088 48.9426 40.0088 47.9998V26.552Z" stroke="black" stroke-miterlimit="10"/>
<path d="M26.6636 32.8092C26.6636 32.2569 27.1114 31.8092 27.6636 31.8092H32.3361C32.8884 31.8092 33.3361 32.2569 33.3361 32.8092V48.9998C33.3361 49.5521 32.8884 49.9998 32.3361 49.9998H27.6636C27.1114 49.9998 26.6636 49.5521 26.6636 48.9998V32.8092Z" stroke="black" stroke-miterlimit="10"/>
<path d="M36.6725 10H45.0043V19.0856" stroke="black" stroke-miterlimit="10" stroke-linecap="round"/>
<path d="M13.3194 25.8618C13.0433 25.8615 12.8192 26.0851 12.8189 26.3613C12.8186 26.6374 13.0422 26.8615 13.3183 26.8618L13.3194 25.8618ZM41.7902 13.5047L41.4217 13.1668L41.4214 13.1671L41.7902 13.5047ZM13.3183 26.8618C24.1463 26.8736 34.5233 22.1828 42.159 13.8423L41.4214 13.1671C33.9655 21.3112 23.8521 25.8733 13.3194 25.8618L13.3183 26.8618ZM42.1587 13.8427L45.3728 10.3379L44.6358 9.66206L41.4217 13.1668L42.1587 13.8427Z" fill="black"/>
</svg>
