<svg width="475" height="650" viewBox="0 0 475 650" fill="none" xmlns="http://www.w3.org/2000/svg">
<rect x="158.33" width="158.33" height="162.5" fill="#BADDD6"/>
<rect x="158.33" y="487.5" width="158.33" height="162.5" fill="#BADDD6"/>
<path d="M158.33 325C245.773 325 316.659 395.887 316.659 483.33V487.5H158.33V325Z" fill="#FAE4D9"/>
<path d="M0 487.5L0 483.33C0 395.887 70.8865 325 158.33 325V487.5H0Z" fill="#FFB5BA"/>
<path d="M158.33 487.5V491.67C158.33 579.113 87.4431 650 4.57764e-05 650L4.57764e-05 487.5H158.33Z" fill="#79CECB"/>
<path d="M0 0C87.443 0 158.33 70.8866 158.33 158.33V162.5H0V0Z" fill="#FFB5BA"/>
<path d="M316.659 650C229.216 650 158.33 579.113 158.33 491.67V487.5H316.659V650Z" fill="#F2CFD7"/>
<path d="M316.659 162.5V166.67C316.659 254.113 245.773 325 158.33 325L158.33 162.5L316.659 162.5Z" fill="#F2CFD7"/>
<path d="M158.33 162.5L158.33 158.33C158.336 70.8866 229.228 0.0053012 316.671 0.0117808L316.659 162.512L158.33 162.5Z" fill="#D9D9D9"/>
<path d="M158.33 325C70.8866 325 4.57764e-05 254.113 4.57764e-05 166.67V162.5L158.33 162.5L158.33 325Z" fill="#61BFBE"/>
<path d="M316.659 487.5V483.33C316.659 395.887 387.546 325 474.989 325V487.5H316.659Z" fill="#61BFBE"/>
<path d="M474.989 487.5V491.67C474.989 579.113 404.102 650 316.659 650V487.5H474.989Z" fill="#FFB5BA"/>
<path d="M316.67 0C404.113 0 475 70.8866 475 158.33V162.5H316.67V0Z" fill="#D9D9D9"/>
<path d="M474.989 325C387.546 325 316.659 254.113 316.659 166.67V162.5L474.989 162.5V325Z" fill="#D9D9D9"/>
<path d="M316.659 162.5V166.67C316.659 254.113 245.773 325 158.33 325L158.33 162.5L316.659 162.5Z" fill="#B7E7E7"/>
<path d="M158.33 162.5L158.33 158.33C158.336 70.8866 229.228 0.0053012 316.671 0.0117808L316.659 162.512L158.33 162.5Z" fill="#FAE4D9"/>
<path d="M316.67 0C404.113 0 475 70.8866 475 158.33V162.5H316.67V0Z" fill="#D6E6E5"/>
<path d="M474.989 325C387.546 325 316.659 254.113 316.659 166.67V162.5L474.989 162.5V325Z" fill="#FFB5BA"/>
</svg>
