<svg width="372" height="496" viewBox="0 0 372 496" fill="none" xmlns="http://www.w3.org/2000/svg">
<path d="M124 248C192.483 248 248 303.517 248 372H124V248Z" fill="#FAE4D9"/>
<path d="M0 372C0 303.517 55.5167 248 124 248V372H0Z" fill="#FFB5BA"/>
<path d="M124 372C124 440.483 68.4833 496 0 496L0 372H124Z" fill="#79CECB"/>
<path d="M0 0C68.4833 0 124 55.5167 124 124H0V0Z" fill="#FFB5BA"/>
<path d="M248 496C179.517 496 124 440.483 124 372H248L248 496Z" fill="#F2CFD7"/>
<path d="M248 124C248 192.483 192.483 248 124 248L124 124L248 124Z" fill="#F2CFD7"/>
<path d="M124 124C124.005 55.5167 179.526 0.00404522 248.009 0.00898967L248 124.009L124 124Z" fill="#D9D9D9"/>
<path d="M124 248C55.5167 248 0 192.483 0 124L124 124L124 248Z" fill="#61BFBE"/>
<path d="M248 372C248 303.517 303.517 248 372 248V372H248Z" fill="#61BFBE"/>
<path d="M372 372C372 440.483 316.483 496 248 496V372H372Z" fill="#FFB5BA"/>
<path d="M248.009 0C316.492 0 372.009 55.5167 372.009 124H248.009V0Z" fill="#D9D9D9"/>
<path d="M372 248C303.517 248 248 192.483 248 124L372 124V248Z" fill="#D9D9D9"/>
<path d="M248 124C248 192.483 192.483 248 124 248L124 124L248 124Z" fill="#B7E7E7"/>
<path d="M124 124C124.005 55.5167 179.526 0.00404522 248.009 0.00898967L248 124.009L124 124Z" fill="#FAE4D9"/>
<path d="M248.009 0C316.492 0 372.009 55.5167 372.009 124H248.009V0Z" fill="#D6E6E5"/>
<path d="M372 248C303.517 248 248 192.483 248 124L372 124V248Z" fill="#FFB5BA"/>
</svg>
