<svg width="24" height="24" viewBox="0 0 24 24" fill="none" xmlns="http://www.w3.org/2000/svg">
<g clip-path="url(#clip0_16_41)">
<path d="M8.5 7C8.5 7.45963 8.59053 7.91475 8.76642 8.33939C8.94231 8.76403 9.20012 9.14987 9.52513 9.47487C9.85013 9.79988 10.236 10.0577 10.6606 10.2336C11.0852 10.4095 11.5404 10.5 12 10.5C12.4596 10.5 12.9148 10.4095 13.3394 10.2336C13.764 10.0577 14.1499 9.79988 14.4749 9.47487C14.7999 9.14987 15.0577 8.76403 15.2336 8.33939C15.4095 7.91475 15.5 7.45963 15.5 7C15.5 6.54037 15.4095 6.08525 15.2336 5.66061C15.0577 5.23597 14.7999 4.85013 14.4749 4.52513C14.1499 4.20012 13.764 3.94231 13.3394 3.76642C12.9148 3.59053 12.4596 3.5 12 3.5C11.5404 3.5 11.0852 3.59053 10.6606 3.76642C10.236 3.94231 9.85013 4.20012 9.52513 4.52513C9.20012 4.85013 8.94231 5.23597 8.76642 5.66061C8.59053 6.08525 8.5 6.54037 8.5 7Z" stroke="#006270" stroke-linecap="round" stroke-linejoin="round"/>
<path d="M12 0.5C13.8181 0.500265 15.5617 1.22271 16.8473 2.50843C18.1328 3.79415 18.855 5.53785 18.855 7.356C18.855 10.571 13.913 18.541 12.421 20.873C12.3758 20.9436 12.3135 21.0017 12.2399 21.0419C12.1663 21.0822 12.0838 21.1033 12 21.1033C11.9161 21.1033 11.8336 21.0822 11.7601 21.0419C11.6865 21.0017 11.6242 20.9436 11.579 20.873C10.087 18.541 5.14499 10.573 5.14499 7.356C5.14486 6.4557 5.32207 5.5642 5.66651 4.7324C6.01094 3.9006 6.51586 3.14479 7.15242 2.50814C7.78898 1.87148 8.54471 1.36646 9.37646 1.0219C10.2082 0.677343 11.0997 0.5 12 0.5Z" stroke="#006270" stroke-linecap="round" stroke-linejoin="round"/>
<path d="M17 19.7C20.848 20.024 23.5 20.709 23.5 21.5C23.5 22.605 18.352 23.5 12 23.5C5.648 23.5 0.5 22.605 0.5 21.5C0.5 20.71 3.135 20.027 6.958 19.7" stroke="#006270" stroke-linecap="round" stroke-linejoin="round"/>
</g>
<defs>
<clipPath id="clip0_16_41">
<rect width="24" height="24" fill="white"/>
</clipPath>
</defs>
</svg>
