<svg width="24" height="24" viewBox="0 0 24 24" fill="none" xmlns="http://www.w3.org/2000/svg">
<g clip-path="url(#clip0_16_25)">
<path d="M18.907 15.035C18.823 14.897 18.6 14.812 18.265 14.647C17.93 14.482 16.28 13.675 15.974 13.565C15.668 13.455 15.442 13.398 15.219 13.731C14.996 14.064 14.353 14.812 14.157 15.031C13.961 15.25 13.766 15.281 13.431 15.115C12.4423 14.725 11.5287 14.1664 10.731 13.464C9.99874 12.7944 9.37049 12.0192 8.867 11.164C8.667 10.832 8.846 10.652 9.014 10.486C9.36555 10.1656 9.65033 9.77886 9.852 9.34805C9.89679 9.25637 9.91771 9.15487 9.91282 9.05295C9.90792 8.95104 9.87737 8.85201 9.824 8.76505C9.743 8.60005 9.072 6.96205 8.793 6.30005C8.477 5.54405 7.068 5.51805 6.501 6.13205C4.712 8.07305 5.125 10.272 6.701 12.347C6.869 12.569 9.021 16.038 12.429 17.37C15.837 18.702 15.837 18.257 16.452 18.201C18.219 18.042 19.415 15.878 18.911 15.038M12 0.500048C8.96308 0.491269 6.04669 1.68757 3.89073 3.82646C1.73478 5.96536 0.515351 8.87215 0.500003 11.909C0.498384 14.3159 1.26607 16.6603 2.691 18.6L1.255 22.838L5.674 21.433C7.40283 22.5676 9.40534 23.2154 11.4711 23.3085C13.5368 23.4016 15.5895 22.9366 17.4134 21.9622C19.2373 20.9879 20.765 19.5402 21.8361 17.7714C22.9071 16.0025 23.4819 13.9778 23.5 11.91C23.4847 8.87305 22.2653 5.96616 20.1093 3.82711C17.9534 1.68806 15.037 0.491535 12 0.500048Z" stroke="#006270" stroke-linecap="round" stroke-linejoin="round"/>
</g>
<defs>
<clipPath id="clip0_16_25">
<rect width="24" height="24" fill="white"/>
</clipPath>
</defs>
</svg>
